<?xml version="1.0" encoding="UTF-8" standalone="no"?>
<svg
   viewBox="0 0 512 512"
   version="1.1"
   width="60"
   height="60"
   id="svg4"
   sodipodi:docname="flag.svg"
   inkscape:version="1.2.1 (9c6d41e410, 2022-07-14)"
   xmlns:inkscape="http://www.inkscape.org/namespaces/inkscape"
   xmlns:sodipodi="http://sodipodi.sourceforge.net/DTD/sodipodi-0.dtd"
   xmlns="http://www.w3.org/2000/svg"
   xmlns:svg="http://www.w3.org/2000/svg">
  <defs
     id="defs8">
    <rect
       x="156.0381"
       y="184.32"
       width="126.78095"
       height="43.885714"
       id="rect364" />
  </defs>
  <sodipodi:namedview
     id="namedview6"
     pagecolor="#53af13"
     bordercolor="#000000"
     borderopacity="0.25"
     inkscape:showpageshadow="2"
     inkscape:pageopacity="0.0"
     inkscape:pagecheckerboard="0"
     inkscape:deskcolor="#d1d1d1"
     showgrid="false"
     inkscape:zoom="1.0253906"
     inkscape:cx="255.51238"
     inkscape:cy="256.48762"
     inkscape:window-width="1366"
     inkscape:window-height="705"
     inkscape:window-x="-8"
     inkscape:window-y="-8"
     inkscape:window-maximized="1"
     inkscape:current-layer="svg4" />
  <!--! Font Awesome Free 6.1.2 by @fontawesome - https://fontawesome.com License - https://fontawesome.com/license/free (Icons: CC BY 4.0, Fonts: SIL OFL 1.1, Code: MIT License) Copyright 2022 Fonticons, Inc. -->
  <path
     d="M64 496C64 504.8 56.75 512 48 512h-32C7.25 512 0 504.8 0 496V32c0-17.75 14.25-32 32-32s32 14.25 32 32V496zM476.3 0c-6.365 0-13.01 1.35-19.34 4.233c-45.69 20.86-79.56 27.94-107.8 27.94c-59.96 0-94.81-31.86-163.9-31.87C160.9 .3055 131.6 4.867 96 15.75v350.5c32-9.984 59.87-14.1 84.85-14.1c73.63 0 124.9 31.78 198.6 31.78c31.91 0 68.02-5.971 111.1-23.09C504.1 355.9 512 344.4 512 332.1V30.73C512 11.1 495.3 0 476.3 0z"
     id="path2" />
  <path
     style="fill:#53af13;stroke:#53af13;stroke-width:0.9436"
     d="M 12.797857,511.02273 C 8.4995833,510.00792 4.8591322,507.23119 2.4380952,503.12092 0.50208466,499.83408 0.48761905,498.05557 0.48761905,263.31429 0.48761905,-8.048396 -0.61862444,20.925545 10.15346,10.15346 17.709798,2.5971227 23.189908,0.53648407 34.009839,1.1829509 45.919674,1.8945371 55.040404,7.8828109 60.191908,18.372955 l 2.710949,5.520378 0.251606,237.747637 c 0.22324,210.9442 0.08481,238.0702 -1.227953,240.60879 -2.377286,4.59717 -6.374788,7.64605 -11.452959,8.73511 -5.446783,1.16814 -32.772145,1.19559 -37.675694,0.0378 z"
     id="path306" />
  <path
     style="fill:#53af13;stroke:#53af13;stroke-width:0.9436"
     d="m 350.11048,381.71421 c -18.24144,-2.18794 -35.74388,-5.71853 -67.28588,-13.57289 -51.96076,-12.93889 -71.71717,-16.07712 -101.22494,-16.07919 -25.29825,-0.002 -47.73347,3.08111 -73.10442,10.04545 l -11.946669,3.27938 V 190.69362 16.000293 L 110.02687,12.37506 c 31.31132,-8.4217479 48.65087,-10.9160569 75.75599,-10.8975672 30.57476,0.020857 44.93318,2.7006799 88.74666,16.5634882 35.92307,11.366241 50.61258,14.130378 75.09334,14.130378 30.61146,0 59.69683,-6.93915 98.72378,-23.5533959 17.24024,-7.3393766 23.43939,-8.68764829 34.29813,-7.4595967 11.10063,1.2554075 21.7397,8.1658119 25.82444,16.7737686 0.97259,2.049575 2.17429,6.655879 2.67045,10.236232 0.53048,3.827976 0.79307,68.971638 0.63742,158.130683 l -0.2647,151.62095 -2.24094,4.87619 c -2.63613,5.73609 -8.95069,12.55849 -14.07444,15.20636 -12.64842,6.53649 -46.85726,16.95968 -69.99319,21.32643 -20.7902,3.92401 -53.58052,4.96554 -75.09333,2.38523 z"
     id="path308" />
  <text
     xml:space="preserve"
     id="text362"
     style="white-space:pre;shape-inside:url(#rect364);fill:#000000;stroke:#000000;stroke-width:0.967559"
     transform="matrix(10.781747,0,0,12.075032,-1553.2413,-2132.3317)"><tspan
       x="156.03906"
       y="195.26828"
       id="tspan431">Miss</tspan></text>
</svg>
